<svg xmlns="http://www.w3.org/2000/svg" xmlns:xlink="http://www.w3.org/1999/xlink" width="500" zoomAndPan="magnify" viewBox="0 0 375 374.999991" height="500" preserveAspectRatio="xMidYMid meet" version="1.2"><defs><clipPath id="809959dddf"><path d="M 321 164 L 348 164 L 348 192 L 321 192 Z M 321 164 "/></clipPath><clipPath id="c976c21560"><path d="M 315.496094 168.554688 L 334.742188 150.765625 L 361.09375 179.277344 L 341.847656 197.066406 Z M 315.496094 168.554688 "/></clipPath><clipPath id="0de3e10852"><path d="M 315.496094 168.554688 L 334.742188 150.765625 L 361.09375 179.277344 L 341.847656 197.066406 Z M 315.496094 168.554688 "/></clipPath><clipPath id="faad851128"><path d="M 334 151 L 362 151 L 362 179 L 334 179 Z M 334 151 "/></clipPath><clipPath id="f3ba85482b"><path d="M 329.304688 155.792969 L 348.550781 138.003906 L 374.902344 166.515625 L 355.65625 184.304688 Z M 329.304688 155.792969 "/></clipPath><clipPath id="ccc500eab0"><path d="M 329.304688 155.792969 L 348.550781 138.003906 L 374.902344 166.515625 L 355.65625 184.304688 Z M 329.304688 155.792969 "/></clipPath></defs><g id="01777cf9de"><g clip-rule="nonzero" clip-path="url(#809959dddf)"><g clip-rule="nonzero" clip-path="url(#c976c21560)"><g clip-rule="nonzero" clip-path="url(#0de3e10852)"><path style=" stroke:none;fill-rule:nonzero;fill:#18cb96;fill-opacity:1;" d="M 347.925781 165.390625 L 324.738281 164.363281 C 320.257812 164.164062 319.5 172.886719 324.808594 173.03125 L 339.238281 173.421875 L 338.136719 187.941406 C 337.800781 192.363281 346.425781 192.832031 346.671875 188.335938 Z M 347.925781 165.390625 "/></g></g></g><g clip-rule="nonzero" clip-path="url(#faad851128)"><g clip-rule="nonzero" clip-path="url(#f3ba85482b)"><g clip-rule="nonzero" clip-path="url(#ccc500eab0)"><path style=" stroke:none;fill-rule:nonzero;fill:#18cb96;fill-opacity:1;" d="M 361.738281 152.628906 L 338.546875 151.597656 C 334.066406 151.398438 333.3125 160.125 338.617188 160.269531 L 353.046875 160.660156 L 351.945312 175.179688 C 351.609375 179.601562 360.234375 180.066406 360.480469 175.574219 Z M 361.738281 152.628906 "/></g></g></g><g style="fill:#373643;fill-opacity:1;"><g transform="translate(7.989356, 215.653678)"><path style="stroke:none" d="M 0.484375 -10.484375 C 0.160156 -11.828125 0.484375 -12.890625 1.453125 -13.671875 C 2.429688 -14.460938 3.519531 -14.859375 4.71875 -14.859375 C 5.644531 -14.859375 6.46875 -14.640625 7.1875 -14.203125 C 7.90625 -13.765625 8.359375 -13.082031 8.546875 -12.15625 C 9.046875 -10.664062 10.003906 -9.515625 11.421875 -8.703125 C 12.835938 -7.898438 14.421875 -7.347656 16.171875 -7.046875 C 17.929688 -6.742188 19.578125 -6.59375 21.109375 -6.59375 C 22.316406 -6.59375 23.632812 -6.6875 25.0625 -6.875 C 26.5 -7.0625 27.863281 -7.394531 29.15625 -7.875 C 30.457031 -8.363281 31.523438 -9.046875 32.359375 -9.921875 C 33.191406 -10.804688 33.609375 -11.941406 33.609375 -13.328125 C 33.609375 -14.804688 32.992188 -15.894531 31.765625 -16.59375 C 30.535156 -17.289062 28.972656 -17.789062 27.078125 -18.09375 C 25.179688 -18.394531 23.191406 -18.613281 21.109375 -18.75 C 18.742188 -18.9375 16.367188 -19.210938 13.984375 -19.578125 C 11.609375 -19.953125 9.4375 -20.554688 7.46875 -21.390625 C 5.5 -22.222656 3.910156 -23.4375 2.703125 -25.03125 C 1.503906 -26.625 0.90625 -28.742188 0.90625 -31.390625 C 0.90625 -33.742188 1.503906 -35.773438 2.703125 -37.484375 C 3.910156 -39.203125 5.484375 -40.601562 7.421875 -41.6875 C 9.367188 -42.78125 11.476562 -43.59375 13.75 -44.125 C 16.019531 -44.65625 18.242188 -44.921875 20.421875 -44.921875 C 22.828125 -44.921875 25.347656 -44.644531 27.984375 -44.09375 C 30.617188 -43.539062 33.035156 -42.554688 35.234375 -41.140625 C 37.429688 -39.734375 39.066406 -37.753906 40.140625 -35.203125 C 40.503906 -33.910156 40.234375 -32.832031 39.328125 -31.96875 C 38.429688 -31.113281 37.378906 -30.6875 36.171875 -30.6875 C 35.429688 -30.6875 34.722656 -30.859375 34.046875 -31.203125 C 33.378906 -31.554688 32.910156 -32.035156 32.640625 -32.640625 C 32.078125 -34.066406 31.101562 -35.128906 29.71875 -35.828125 C 28.332031 -36.523438 26.804688 -36.976562 25.140625 -37.1875 C 23.472656 -37.394531 21.921875 -37.5 20.484375 -37.5 C 19.554688 -37.5 18.457031 -37.40625 17.1875 -37.21875 C 15.914062 -37.03125 14.675781 -36.703125 13.46875 -36.234375 C 12.269531 -35.773438 11.265625 -35.140625 10.453125 -34.328125 C 9.640625 -33.523438 9.234375 -32.519531 9.234375 -31.3125 C 9.234375 -29.832031 9.8125 -28.722656 10.96875 -27.984375 C 12.125 -27.242188 13.660156 -26.734375 15.578125 -26.453125 C 17.503906 -26.179688 19.601562 -25.953125 21.875 -25.765625 C 24.28125 -25.535156 26.675781 -25.269531 29.0625 -24.96875 C 31.445312 -24.664062 33.609375 -24.128906 35.546875 -23.359375 C 37.492188 -22.597656 39.046875 -21.441406 40.203125 -19.890625 C 41.359375 -18.335938 41.9375 -16.175781 41.9375 -13.40625 C 41.9375 -10.625 41.273438 -8.328125 39.953125 -6.515625 C 38.640625 -4.710938 36.914062 -3.28125 34.78125 -2.21875 C 32.65625 -1.15625 30.390625 -0.40625 27.984375 0.03125 C 25.578125 0.46875 23.285156 0.6875 21.109375 0.6875 C 19.304688 0.6875 17.335938 0.515625 15.203125 0.171875 C 13.078125 -0.171875 11.003906 -0.769531 8.984375 -1.625 C 6.972656 -2.488281 5.203125 -3.632812 3.671875 -5.0625 C 2.148438 -6.5 1.085938 -8.304688 0.484375 -10.484375 Z M 0.484375 -10.484375 "/></g></g><g style="fill:#373643;fill-opacity:1;"><g transform="translate(50.204149, 215.653678)"><path style="stroke:none" d="M 32.28125 -35.34375 C 33.488281 -35.34375 34.453125 -35.003906 35.171875 -34.328125 C 35.890625 -33.660156 36.25 -32.796875 36.25 -31.734375 L 36.25 -3.609375 C 36.25 -2.546875 35.890625 -1.675781 35.171875 -1 C 34.453125 -0.332031 33.488281 0 32.28125 0 C 31.125 0 30.222656 -0.265625 29.578125 -0.796875 C 28.929688 -1.328125 28.539062 -2.035156 28.40625 -2.921875 C 26.832031 -1.671875 25.070312 -0.753906 23.125 -0.171875 C 21.175781 0.398438 19.320312 0.6875 17.5625 0.6875 C 14.226562 0.6875 11.347656 -0.0703125 8.921875 -1.59375 C 6.492188 -3.125 4.628906 -5.273438 3.328125 -8.046875 C 2.035156 -10.828125 1.390625 -14.070312 1.390625 -17.78125 C 1.390625 -21.382812 2.101562 -24.550781 3.53125 -27.28125 C 4.96875 -30.019531 6.972656 -32.160156 9.546875 -33.703125 C 12.117188 -35.253906 15.09375 -36.03125 18.46875 -36.03125 C 19.945312 -36.03125 21.585938 -35.753906 23.390625 -35.203125 C 25.203125 -34.648438 26.875 -33.769531 28.40625 -32.5625 C 28.582031 -33.394531 28.992188 -34.066406 29.640625 -34.578125 C 30.296875 -35.085938 31.175781 -35.34375 32.28125 -35.34375 Z M 18.40625 -6.3125 C 20.4375 -6.3125 22.398438 -6.765625 24.296875 -7.671875 C 26.203125 -8.578125 27.546875 -9.910156 28.328125 -11.671875 L 28.328125 -23.671875 C 27.453125 -25.390625 26.132812 -26.710938 24.375 -27.640625 C 22.613281 -28.566406 20.832031 -29.03125 19.03125 -29.03125 C 16.113281 -29.03125 13.757812 -27.960938 11.96875 -25.828125 C 10.1875 -23.703125 9.296875 -20.992188 9.296875 -17.703125 C 9.296875 -14.273438 10.128906 -11.519531 11.796875 -9.4375 C 13.460938 -7.351562 15.664062 -6.3125 18.40625 -6.3125 Z M 18.40625 -6.3125 "/></g></g><g style="fill:#373643;fill-opacity:1;"><g transform="translate(90.335942, 215.653678)"><path style="stroke:none" d="M 23.40625 -36.03125 C 26.644531 -36.03125 29.394531 -35.320312 31.65625 -33.90625 C 33.925781 -32.5 35.660156 -30.546875 36.859375 -28.046875 C 38.066406 -25.546875 38.671875 -22.628906 38.671875 -19.296875 L 38.671875 -3.609375 C 38.671875 -2.546875 38.320312 -1.675781 37.625 -1 C 36.9375 -0.332031 35.96875 0 34.71875 0 C 33.5625 0 32.613281 -0.332031 31.875 -1 C 31.132812 -1.675781 30.765625 -2.546875 30.765625 -3.609375 L 30.765625 -19.4375 C 30.765625 -22.3125 30.078125 -24.640625 28.703125 -26.421875 C 27.335938 -28.203125 25.175781 -29.09375 22.21875 -29.09375 C 21.34375 -29.09375 20.289062 -28.847656 19.0625 -28.359375 C 17.832031 -27.878906 16.625 -27.148438 15.4375 -26.171875 C 14.257812 -25.203125 13.289062 -23.976562 12.53125 -22.5 C 11.769531 -21.019531 11.390625 -19.257812 11.390625 -17.21875 L 11.390625 -3.546875 C 11.390625 -1.179688 10.113281 0 7.5625 0 C 6.363281 0 5.378906 -0.3125 4.609375 -0.9375 C 3.847656 -1.5625 3.46875 -2.429688 3.46875 -3.546875 L 3.46875 -31.796875 C 3.46875 -32.953125 3.875 -33.832031 4.6875 -34.4375 C 5.5 -35.039062 6.414062 -35.34375 7.4375 -35.34375 C 8.40625 -35.34375 9.304688 -35.039062 10.140625 -34.4375 C 10.972656 -33.832031 11.390625 -33 11.390625 -31.9375 L 11.390625 -31.453125 C 13.378906 -33.304688 15.4375 -34.53125 17.5625 -35.125 C 19.695312 -35.726562 21.644531 -36.03125 23.40625 -36.03125 Z M 23.40625 -36.03125 "/></g></g><g style="fill:#373643;fill-opacity:1;"><g transform="translate(132.481296, 215.653678)"><path style="stroke:none" d="M 32.359375 -44.921875 C 33.328125 -44.921875 34.238281 -44.644531 35.09375 -44.09375 C 35.957031 -43.539062 36.390625 -42.660156 36.390625 -41.453125 L 36.390625 -3.546875 C 36.390625 -1.179688 35.046875 0 32.359375 0 C 29.953125 0 28.703125 -1.109375 28.609375 -3.328125 C 27.128906 -2.035156 25.460938 -1.050781 23.609375 -0.375 C 21.753906 0.289062 19.992188 0.625 18.328125 0.625 C 14.859375 0.625 11.863281 -0.160156 9.34375 -1.734375 C 6.820312 -3.304688 4.890625 -5.503906 3.546875 -8.328125 C 2.203125 -11.148438 1.53125 -14.390625 1.53125 -18.046875 C 1.53125 -21.566406 2.242188 -24.671875 3.671875 -27.359375 C 5.109375 -30.046875 7.113281 -32.160156 9.6875 -33.703125 C 12.257812 -35.253906 15.234375 -36.03125 18.609375 -36.03125 C 20.140625 -36.03125 21.78125 -35.726562 23.53125 -35.125 C 25.289062 -34.53125 26.9375 -33.628906 28.46875 -32.421875 L 28.46875 -41.453125 C 28.46875 -42.660156 28.875 -43.539062 29.6875 -44.09375 C 30.5 -44.644531 31.390625 -44.921875 32.359375 -44.921875 Z M 18.546875 -6.390625 C 20.859375 -6.390625 22.953125 -6.910156 24.828125 -7.953125 C 26.703125 -8.992188 27.960938 -10.507812 28.609375 -12.5 L 28.53125 -23.1875 C 27.75 -25.09375 26.46875 -26.539062 24.6875 -27.53125 C 22.90625 -28.53125 21.066406 -29.03125 19.171875 -29.03125 C 16.253906 -29.03125 13.898438 -27.972656 12.109375 -25.859375 C 10.328125 -23.753906 9.4375 -21.128906 9.4375 -17.984375 C 9.4375 -14.609375 10.269531 -11.832031 11.9375 -9.65625 C 13.601562 -7.476562 15.804688 -6.390625 18.546875 -6.390625 Z M 18.546875 -6.390625 "/></g></g><g style="fill:#373643;fill-opacity:1;"><g transform="translate(172.682513, 215.653678)"><path style="stroke:none" d="M 19.859375 -6.1875 C 21.203125 -6.1875 22.519531 -6.367188 23.8125 -6.734375 C 25.113281 -7.109375 26.316406 -7.734375 27.421875 -8.609375 C 28.492188 -9.578125 29.535156 -10.023438 30.546875 -9.953125 C 31.566406 -9.890625 32.410156 -9.519531 33.078125 -8.84375 C 33.753906 -8.175781 34.09375 -7.34375 34.09375 -6.34375 C 34.09375 -5.351562 33.609375 -4.394531 32.640625 -3.46875 C 31.015625 -1.894531 29.09375 -0.796875 26.875 -0.171875 C 24.65625 0.453125 22.382812 0.738281 20.0625 0.6875 C 16.457031 0.6875 13.273438 -0.0507812 10.515625 -1.53125 C 7.765625 -3.007812 5.613281 -5.066406 4.0625 -7.703125 C 2.507812 -10.347656 1.734375 -13.40625 1.734375 -16.875 C 1.734375 -20.664062 2.472656 -23.992188 3.953125 -26.859375 C 5.441406 -29.734375 7.535156 -31.976562 10.234375 -33.59375 C 12.941406 -35.21875 16.148438 -36.03125 19.859375 -36.03125 C 23.566406 -36.03125 26.710938 -35.28125 29.296875 -33.78125 C 31.890625 -32.28125 33.867188 -30.175781 35.234375 -27.46875 C 36.597656 -24.757812 37.28125 -21.597656 37.28125 -17.984375 C 37.28125 -16.828125 37.050781 -15.84375 36.59375 -15.03125 C 36.132812 -14.21875 34.90625 -13.8125 32.90625 -13.8125 L 9.796875 -13.8125 C 10.441406 -11.550781 11.664062 -9.710938 13.46875 -8.296875 C 15.269531 -6.890625 17.398438 -6.1875 19.859375 -6.1875 Z M 19.921875 -29.15625 C 17.242188 -29.15625 15 -28.3125 13.1875 -26.625 C 11.382812 -24.9375 10.226562 -22.726562 9.71875 -20 L 29.921875 -20 C 29.691406 -22.726562 28.789062 -24.9375 27.21875 -26.625 C 25.644531 -28.3125 23.210938 -29.15625 19.921875 -29.15625 Z M 19.921875 -29.15625 "/></g></g><g style="fill:#373643;fill-opacity:1;"><g transform="translate(213.022611, 215.653678)"><path style="stroke:none" d="M 0.0625 -30.140625 C -0.257812 -31.066406 -0.269531 -31.921875 0.03125 -32.703125 C 0.332031 -33.492188 0.84375 -34.128906 1.5625 -34.609375 C 2.28125 -35.097656 3.03125 -35.34375 3.8125 -35.34375 C 4.644531 -35.34375 5.375 -35.125 6 -34.6875 C 6.625 -34.25 7.101562 -33.65625 7.4375 -32.90625 L 18.046875 -11.390625 L 28.671875 -32.984375 C 29.085938 -33.816406 29.628906 -34.414062 30.296875 -34.78125 C 30.972656 -35.15625 31.679688 -35.34375 32.421875 -35.34375 C 33.253906 -35.34375 34.003906 -35.125 34.671875 -34.6875 C 35.347656 -34.25 35.8125 -33.644531 36.0625 -32.875 C 36.320312 -32.113281 36.195312 -31.222656 35.6875 -30.203125 L 21.53125 -1.453125 C 21.207031 -0.859375 20.71875 -0.351562 20.0625 0.0625 C 19.414062 0.476562 18.703125 0.6875 17.921875 0.6875 C 16.390625 0.6875 15.226562 0.0195312 14.4375 -1.3125 Z M 0.0625 -30.140625 "/></g></g><g style="fill:#373643;fill-opacity:1;"><g transform="translate(248.918983, 215.653678)"><path style="stroke:none" d="M 19.859375 -6.1875 C 21.203125 -6.1875 22.519531 -6.367188 23.8125 -6.734375 C 25.113281 -7.109375 26.316406 -7.734375 27.421875 -8.609375 C 28.492188 -9.578125 29.535156 -10.023438 30.546875 -9.953125 C 31.566406 -9.890625 32.410156 -9.519531 33.078125 -8.84375 C 33.753906 -8.175781 34.09375 -7.34375 34.09375 -6.34375 C 34.09375 -5.351562 33.609375 -4.394531 32.640625 -3.46875 C 31.015625 -1.894531 29.09375 -0.796875 26.875 -0.171875 C 24.65625 0.453125 22.382812 0.738281 20.0625 0.6875 C 16.457031 0.6875 13.273438 -0.0507812 10.515625 -1.53125 C 7.765625 -3.007812 5.613281 -5.066406 4.0625 -7.703125 C 2.507812 -10.347656 1.734375 -13.40625 1.734375 -16.875 C 1.734375 -20.664062 2.472656 -23.992188 3.953125 -26.859375 C 5.441406 -29.734375 7.535156 -31.976562 10.234375 -33.59375 C 12.941406 -35.21875 16.148438 -36.03125 19.859375 -36.03125 C 23.566406 -36.03125 26.710938 -35.28125 29.296875 -33.78125 C 31.890625 -32.28125 33.867188 -30.175781 35.234375 -27.46875 C 36.597656 -24.757812 37.28125 -21.597656 37.28125 -17.984375 C 37.28125 -16.828125 37.050781 -15.84375 36.59375 -15.03125 C 36.132812 -14.21875 34.90625 -13.8125 32.90625 -13.8125 L 9.796875 -13.8125 C 10.441406 -11.550781 11.664062 -9.710938 13.46875 -8.296875 C 15.269531 -6.890625 17.398438 -6.1875 19.859375 -6.1875 Z M 19.921875 -29.15625 C 17.242188 -29.15625 15 -28.3125 13.1875 -26.625 C 11.382812 -24.9375 10.226562 -22.726562 9.71875 -20 L 29.921875 -20 C 29.691406 -22.726562 28.789062 -24.9375 27.21875 -26.625 C 25.644531 -28.3125 23.210938 -29.15625 19.921875 -29.15625 Z M 19.921875 -29.15625 "/></g></g><g style="fill:#373643;fill-opacity:1;"><g transform="translate(289.25908, 215.653678)"><path style="stroke:none" d="M 32.078125 -6.59375 C 33.003906 -5.570312 33.429688 -4.550781 33.359375 -3.53125 C 33.296875 -2.519531 32.914062 -1.675781 32.21875 -1 C 31.519531 -0.332031 30.6875 0 29.71875 0 C 28.65625 0 27.613281 -0.507812 26.59375 -1.53125 L 16.671875 -12.296875 L 6.8125 -1.671875 C 5.738281 -0.554688 4.578125 0 3.328125 0 C 2.398438 0 1.585938 -0.3125 0.890625 -0.9375 C 0.203125 -1.5625 -0.160156 -2.347656 -0.203125 -3.296875 C -0.253906 -4.242188 0.179688 -5.226562 1.109375 -6.25 L 11.796875 -17.78125 L 1.390625 -29.03125 C 0.460938 -30.039062 0.0195312 -31.03125 0.0625 -32 C 0.113281 -32.976562 0.5 -33.78125 1.21875 -34.40625 C 1.9375 -35.03125 2.78125 -35.34375 3.75 -35.34375 C 4.351562 -35.34375 4.96875 -35.203125 5.59375 -34.921875 C 6.21875 -34.648438 6.832031 -34.1875 7.4375 -33.53125 L 16.796875 -23.46875 L 26.3125 -33.671875 C 26.875 -34.273438 27.453125 -34.703125 28.046875 -34.953125 C 28.648438 -35.210938 29.226562 -35.34375 29.78125 -35.34375 C 30.757812 -35.34375 31.59375 -35.039062 32.28125 -34.4375 C 32.976562 -33.832031 33.347656 -33.054688 33.390625 -32.109375 C 33.441406 -31.160156 32.984375 -30.15625 32.015625 -29.09375 L 21.59375 -17.921875 Z M 32.078125 -6.59375 "/></g></g><g style="fill:#373643;fill-opacity:1;"><g transform="translate(134.472504, 246.463748)"><path style="stroke:none" d="M 6.09375 -15.328125 C 8.6875 -15.328125 10.6875 -14.648438 12.09375 -13.296875 C 13.5 -11.941406 14.203125 -10.054688 14.203125 -7.640625 C 14.203125 -5.222656 13.5 -3.34375 12.09375 -2 C 10.6875 -0.664062 8.6875 0 6.09375 0 L 1.796875 0 L 1.796875 -15.328125 Z M 6.09375 -0.828125 C 8.40625 -0.828125 10.164062 -1.425781 11.375 -2.625 C 12.582031 -3.832031 13.1875 -5.503906 13.1875 -7.640625 C 13.1875 -9.796875 12.582031 -11.476562 11.375 -12.6875 C 10.164062 -13.894531 8.40625 -14.5 6.09375 -14.5 L 2.78125 -14.5 L 2.78125 -0.828125 Z M 6.09375 -0.828125 "/></g></g><g style="fill:#373643;fill-opacity:1;"><g transform="translate(149.017013, 246.463748)"><path style="stroke:none" d="M 2.78125 -9.421875 C 3.070312 -10.285156 3.585938 -10.945312 4.328125 -11.40625 C 5.066406 -11.863281 6.015625 -12.09375 7.171875 -12.09375 L 7.171875 -11.078125 L 6.84375 -11.078125 C 5.675781 -11.078125 4.707031 -10.742188 3.9375 -10.078125 C 3.164062 -9.421875 2.78125 -8.34375 2.78125 -6.84375 L 2.78125 0 L 1.796875 0 L 1.796875 -11.859375 L 2.78125 -11.859375 Z M 2.78125 -9.421875 "/></g></g><g style="fill:#373643;fill-opacity:1;"><g transform="translate(155.830473, 246.463748)"><path style="stroke:none" d="M 2.296875 -14.5 C 2.054688 -14.5 1.859375 -14.578125 1.703125 -14.734375 C 1.546875 -14.890625 1.46875 -15.097656 1.46875 -15.359375 C 1.46875 -15.609375 1.546875 -15.8125 1.703125 -15.96875 C 1.859375 -16.125 2.054688 -16.203125 2.296875 -16.203125 C 2.523438 -16.203125 2.71875 -16.125 2.875 -15.96875 C 3.039062 -15.8125 3.125 -15.609375 3.125 -15.359375 C 3.125 -15.097656 3.039062 -14.890625 2.875 -14.734375 C 2.71875 -14.578125 2.523438 -14.5 2.296875 -14.5 Z M 2.78125 -11.859375 L 2.78125 0 L 1.796875 0 L 1.796875 -11.859375 Z M 2.78125 -11.859375 "/></g></g><g style="fill:#373643;fill-opacity:1;"><g transform="translate(159.586451, 246.463748)"><path style="stroke:none" d="M 5.8125 -1.078125 L 10.171875 -11.859375 L 11.234375 -11.859375 L 6.3125 0 L 5.28125 0 L 0.375 -11.859375 L 1.4375 -11.859375 Z M 5.8125 -1.078125 "/></g></g><g style="fill:#373643;fill-opacity:1;"><g transform="translate(170.352795, 246.463748)"><path style="stroke:none" d="M 12.46875 -6.734375 C 12.46875 -6.203125 12.453125 -5.804688 12.421875 -5.546875 L 2.1875 -5.546875 C 2.21875 -4.484375 2.445312 -3.585938 2.875 -2.859375 C 3.3125 -2.128906 3.882812 -1.582031 4.59375 -1.21875 C 5.3125 -0.851562 6.097656 -0.671875 6.953125 -0.671875 C 8.109375 -0.671875 9.078125 -0.957031 9.859375 -1.53125 C 10.648438 -2.113281 11.148438 -2.898438 11.359375 -3.890625 L 12.390625 -3.890625 C 12.148438 -2.679688 11.550781 -1.703125 10.59375 -0.953125 C 9.632812 -0.203125 8.421875 0.171875 6.953125 0.171875 C 5.835938 0.171875 4.84375 -0.0703125 3.96875 -0.5625 C 3.101562 -1.0625 2.421875 -1.769531 1.921875 -2.6875 C 1.421875 -3.613281 1.171875 -4.695312 1.171875 -5.9375 C 1.171875 -7.175781 1.414062 -8.253906 1.90625 -9.171875 C 2.394531 -10.085938 3.078125 -10.789062 3.953125 -11.28125 C 4.828125 -11.769531 5.828125 -12.015625 6.953125 -12.015625 C 8.085938 -12.015625 9.070312 -11.769531 9.90625 -11.28125 C 10.738281 -10.789062 11.375 -10.140625 11.8125 -9.328125 C 12.25 -8.523438 12.46875 -7.660156 12.46875 -6.734375 Z M 11.484375 -6.359375 C 11.535156 -7.398438 11.351562 -8.285156 10.9375 -9.015625 C 10.519531 -9.742188 9.953125 -10.285156 9.234375 -10.640625 C 8.523438 -11.003906 7.753906 -11.1875 6.921875 -11.1875 C 6.085938 -11.1875 5.316406 -11.003906 4.609375 -10.640625 C 3.910156 -10.285156 3.335938 -9.742188 2.890625 -9.015625 C 2.453125 -8.285156 2.21875 -7.398438 2.1875 -6.359375 Z M 11.484375 -6.359375 "/></g></g><g style="fill:#373643;fill-opacity:1;"><g transform="translate(183.172019, 246.463748)"><path style="stroke:none" d="M 7.140625 -12.09375 C 8.554688 -12.09375 9.707031 -11.660156 10.59375 -10.796875 C 11.476562 -9.929688 11.921875 -8.648438 11.921875 -6.953125 L 11.921875 0 L 10.96875 0 L 10.96875 -6.875 C 10.96875 -8.289062 10.609375 -9.375 9.890625 -10.125 C 9.179688 -10.875 8.210938 -11.25 6.984375 -11.25 C 5.703125 -11.25 4.679688 -10.835938 3.921875 -10.015625 C 3.160156 -9.203125 2.78125 -8 2.78125 -6.40625 L 2.78125 0 L 1.796875 0 L 1.796875 -11.859375 L 2.78125 -11.859375 L 2.78125 -9.34375 C 3.113281 -10.238281 3.664062 -10.921875 4.4375 -11.390625 C 5.21875 -11.859375 6.117188 -12.09375 7.140625 -12.09375 Z M 7.140625 -12.09375 "/></g></g><g style="fill:#373643;fill-opacity:1;"><g transform="translate(195.947552, 246.463748)"><path style="stroke:none" d=""/></g></g><g style="fill:#373643;fill-opacity:1;"><g transform="translate(201.275955, 246.463748)"><path style="stroke:none" d="M 2.78125 -8.734375 C 3.132812 -9.691406 3.75 -10.476562 4.625 -11.09375 C 5.5 -11.707031 6.554688 -12.015625 7.796875 -12.015625 C 8.898438 -12.015625 9.882812 -11.765625 10.75 -11.265625 C 11.625 -10.773438 12.300781 -10.070312 12.78125 -9.15625 C 13.269531 -8.238281 13.515625 -7.164062 13.515625 -5.9375 C 13.515625 -4.71875 13.269531 -3.644531 12.78125 -2.71875 C 12.300781 -1.789062 11.625 -1.078125 10.75 -0.578125 C 9.882812 -0.078125 8.898438 0.171875 7.796875 0.171875 C 6.554688 0.171875 5.492188 -0.128906 4.609375 -0.734375 C 3.734375 -1.347656 3.125 -2.140625 2.78125 -3.109375 L 2.78125 0 L 1.796875 0 L 1.796875 -16.171875 L 2.78125 -16.171875 Z M 12.515625 -5.9375 C 12.515625 -7.019531 12.3125 -7.953125 11.90625 -8.734375 C 11.5 -9.523438 10.925781 -10.125 10.1875 -10.53125 C 9.457031 -10.945312 8.609375 -11.15625 7.640625 -11.15625 C 6.722656 -11.15625 5.894531 -10.941406 5.15625 -10.515625 C 4.414062 -10.085938 3.832031 -9.476562 3.40625 -8.6875 C 2.988281 -7.894531 2.78125 -6.976562 2.78125 -5.9375 C 2.78125 -4.894531 2.988281 -3.972656 3.40625 -3.171875 C 3.832031 -2.378906 4.414062 -1.769531 5.15625 -1.34375 C 5.894531 -0.914062 6.722656 -0.703125 7.640625 -0.703125 C 8.609375 -0.703125 9.457031 -0.910156 10.1875 -1.328125 C 10.925781 -1.753906 11.5 -2.359375 11.90625 -3.140625 C 12.3125 -3.929688 12.515625 -4.863281 12.515625 -5.9375 Z M 12.515625 -5.9375 "/></g></g><g style="fill:#373643;fill-opacity:1;"><g transform="translate(215.143457, 246.463748)"><path style="stroke:none" d="M 11.046875 -11.859375 L 4.15625 5.5625 L 3.140625 5.5625 L 5.359375 0 L 0.375 -11.859375 L 1.4375 -11.859375 L 5.890625 -1.09375 L 10.046875 -11.859375 Z M 11.046875 -11.859375 "/></g></g><g style="fill:#373643;fill-opacity:1;"><g transform="translate(225.756927, 246.463748)"><path style="stroke:none" d=""/></g></g><g style="fill:#373643;fill-opacity:1;"><g transform="translate(231.08533, 246.463748)"><path style="stroke:none" d="M 11.078125 -11.015625 C 11.078125 -9.660156 10.65625 -8.609375 9.8125 -7.859375 C 8.96875 -7.109375 7.710938 -6.734375 6.046875 -6.734375 L 2.78125 -6.734375 L 2.78125 0 L 1.796875 0 L 1.796875 -15.328125 L 6.046875 -15.328125 C 7.734375 -15.328125 8.992188 -14.9375 9.828125 -14.15625 C 10.660156 -13.382812 11.078125 -12.335938 11.078125 -11.015625 Z M 6.046875 -7.609375 C 8.742188 -7.609375 10.09375 -8.742188 10.09375 -11.015625 C 10.09375 -12.128906 9.769531 -12.976562 9.125 -13.5625 C 8.488281 -14.15625 7.460938 -14.453125 6.046875 -14.453125 L 2.78125 -14.453125 L 2.78125 -7.609375 Z M 6.046875 -7.609375 "/></g></g><g style="fill:#373643;fill-opacity:1;"><g transform="translate(242.179254, 246.463748)"><path style="stroke:none" d="M 7.015625 0.171875 C 5.910156 0.171875 4.910156 -0.0703125 4.015625 -0.5625 C 3.128906 -1.0625 2.429688 -1.769531 1.921875 -2.6875 C 1.421875 -3.613281 1.171875 -4.695312 1.171875 -5.9375 C 1.171875 -7.164062 1.425781 -8.238281 1.9375 -9.15625 C 2.445312 -10.082031 3.148438 -10.789062 4.046875 -11.28125 C 4.941406 -11.769531 5.945312 -12.015625 7.0625 -12.015625 C 8.164062 -12.015625 9.160156 -11.769531 10.046875 -11.28125 C 10.929688 -10.789062 11.625 -10.085938 12.125 -9.171875 C 12.632812 -8.253906 12.890625 -7.175781 12.890625 -5.9375 C 12.890625 -4.695312 12.632812 -3.613281 12.125 -2.6875 C 11.613281 -1.769531 10.910156 -1.0625 10.015625 -0.5625 C 9.117188 -0.0703125 8.117188 0.171875 7.015625 0.171875 Z M 7.015625 -0.703125 C 7.867188 -0.703125 8.671875 -0.894531 9.421875 -1.28125 C 10.171875 -1.664062 10.769531 -2.25 11.21875 -3.03125 C 11.675781 -3.820312 11.90625 -4.789062 11.90625 -5.9375 C 11.90625 -7.070312 11.675781 -8.03125 11.21875 -8.8125 C 10.769531 -9.601562 10.175781 -10.191406 9.4375 -10.578125 C 8.695312 -10.960938 7.894531 -11.15625 7.03125 -11.15625 C 6.175781 -11.15625 5.378906 -10.960938 4.640625 -10.578125 C 3.898438 -10.191406 3.304688 -9.601562 2.859375 -8.8125 C 2.410156 -8.03125 2.1875 -7.070312 2.1875 -5.9375 C 2.1875 -4.789062 2.40625 -3.820312 2.84375 -3.03125 C 3.289062 -2.25 3.878906 -1.664062 4.609375 -1.28125 C 5.347656 -0.894531 6.148438 -0.703125 7.015625 -0.703125 Z M 7.015625 -0.703125 "/></g></g><g style="fill:#373643;fill-opacity:1;"><g transform="translate(255.435257, 246.463748)"><path style="stroke:none" d="M 5.75 0.171875 C 4.414062 0.171875 3.332031 -0.117188 2.5 -0.703125 C 1.664062 -1.285156 1.195312 -2.113281 1.09375 -3.1875 L 2.09375 -3.1875 C 2.164062 -2.414062 2.519531 -1.800781 3.15625 -1.34375 C 3.789062 -0.894531 4.65625 -0.671875 5.75 -0.671875 C 6.644531 -0.671875 7.359375 -0.898438 7.890625 -1.359375 C 8.421875 -1.816406 8.6875 -2.382812 8.6875 -3.0625 C 8.6875 -3.519531 8.546875 -3.898438 8.265625 -4.203125 C 7.984375 -4.503906 7.628906 -4.734375 7.203125 -4.890625 C 6.785156 -5.054688 6.210938 -5.234375 5.484375 -5.421875 C 4.609375 -5.648438 3.898438 -5.875 3.359375 -6.09375 C 2.828125 -6.320312 2.367188 -6.660156 1.984375 -7.109375 C 1.609375 -7.566406 1.421875 -8.175781 1.421875 -8.9375 C 1.421875 -9.488281 1.585938 -10 1.921875 -10.46875 C 2.253906 -10.945312 2.71875 -11.320312 3.3125 -11.59375 C 3.914062 -11.875 4.597656 -12.015625 5.359375 -12.015625 C 6.585938 -12.015625 7.582031 -11.703125 8.34375 -11.078125 C 9.113281 -10.460938 9.53125 -9.609375 9.59375 -8.515625 L 8.609375 -8.515625 C 8.566406 -9.304688 8.257812 -9.945312 7.6875 -10.4375 C 7.125 -10.9375 6.335938 -11.1875 5.328125 -11.1875 C 4.484375 -11.1875 3.785156 -10.96875 3.234375 -10.53125 C 2.679688 -10.09375 2.40625 -9.5625 2.40625 -8.9375 C 2.40625 -8.382812 2.5625 -7.9375 2.875 -7.59375 C 3.1875 -7.25 3.570312 -6.984375 4.03125 -6.796875 C 4.488281 -6.617188 5.097656 -6.425781 5.859375 -6.21875 C 6.679688 -6 7.34375 -5.785156 7.84375 -5.578125 C 8.351562 -5.367188 8.78125 -5.0625 9.125 -4.65625 C 9.476562 -4.257812 9.65625 -3.726562 9.65625 -3.0625 C 9.65625 -2.445312 9.488281 -1.890625 9.15625 -1.390625 C 8.820312 -0.898438 8.351562 -0.515625 7.75 -0.234375 C 7.15625 0.0351562 6.488281 0.171875 5.75 0.171875 Z M 5.75 0.171875 "/></g></g><g style="fill:#373643;fill-opacity:1;"><g transform="translate(265.459073, 246.463748)"><path style="stroke:none" d="M 5.75 0.171875 C 4.414062 0.171875 3.332031 -0.117188 2.5 -0.703125 C 1.664062 -1.285156 1.195312 -2.113281 1.09375 -3.1875 L 2.09375 -3.1875 C 2.164062 -2.414062 2.519531 -1.800781 3.15625 -1.34375 C 3.789062 -0.894531 4.65625 -0.671875 5.75 -0.671875 C 6.644531 -0.671875 7.359375 -0.898438 7.890625 -1.359375 C 8.421875 -1.816406 8.6875 -2.382812 8.6875 -3.0625 C 8.6875 -3.519531 8.546875 -3.898438 8.265625 -4.203125 C 7.984375 -4.503906 7.628906 -4.734375 7.203125 -4.890625 C 6.785156 -5.054688 6.210938 -5.234375 5.484375 -5.421875 C 4.609375 -5.648438 3.898438 -5.875 3.359375 -6.09375 C 2.828125 -6.320312 2.367188 -6.660156 1.984375 -7.109375 C 1.609375 -7.566406 1.421875 -8.175781 1.421875 -8.9375 C 1.421875 -9.488281 1.585938 -10 1.921875 -10.46875 C 2.253906 -10.945312 2.71875 -11.320312 3.3125 -11.59375 C 3.914062 -11.875 4.597656 -12.015625 5.359375 -12.015625 C 6.585938 -12.015625 7.582031 -11.703125 8.34375 -11.078125 C 9.113281 -10.460938 9.53125 -9.609375 9.59375 -8.515625 L 8.609375 -8.515625 C 8.566406 -9.304688 8.257812 -9.945312 7.6875 -10.4375 C 7.125 -10.9375 6.335938 -11.1875 5.328125 -11.1875 C 4.484375 -11.1875 3.785156 -10.96875 3.234375 -10.53125 C 2.679688 -10.09375 2.40625 -9.5625 2.40625 -8.9375 C 2.40625 -8.382812 2.5625 -7.9375 2.875 -7.59375 C 3.1875 -7.25 3.570312 -6.984375 4.03125 -6.796875 C 4.488281 -6.617188 5.097656 -6.425781 5.859375 -6.21875 C 6.679688 -6 7.34375 -5.785156 7.84375 -5.578125 C 8.351562 -5.367188 8.78125 -5.0625 9.125 -4.65625 C 9.476562 -4.257812 9.65625 -3.726562 9.65625 -3.0625 C 9.65625 -2.445312 9.488281 -1.890625 9.15625 -1.390625 C 8.820312 -0.898438 8.351562 -0.515625 7.75 -0.234375 C 7.15625 0.0351562 6.488281 0.171875 5.75 0.171875 Z M 5.75 0.171875 "/></g></g><g style="fill:#373643;fill-opacity:1;"><g transform="translate(275.482889, 246.463748)"><path style="stroke:none" d="M 2.296875 -14.5 C 2.054688 -14.5 1.859375 -14.578125 1.703125 -14.734375 C 1.546875 -14.890625 1.46875 -15.097656 1.46875 -15.359375 C 1.46875 -15.609375 1.546875 -15.8125 1.703125 -15.96875 C 1.859375 -16.125 2.054688 -16.203125 2.296875 -16.203125 C 2.523438 -16.203125 2.71875 -16.125 2.875 -15.96875 C 3.039062 -15.8125 3.125 -15.609375 3.125 -15.359375 C 3.125 -15.097656 3.039062 -14.890625 2.875 -14.734375 C 2.71875 -14.578125 2.523438 -14.5 2.296875 -14.5 Z M 2.78125 -11.859375 L 2.78125 0 L 1.796875 0 L 1.796875 -11.859375 Z M 2.78125 -11.859375 "/></g></g><g style="fill:#373643;fill-opacity:1;"><g transform="translate(279.238867, 246.463748)"><path style="stroke:none" d="M 2.78125 -8.734375 C 3.132812 -9.691406 3.75 -10.476562 4.625 -11.09375 C 5.5 -11.707031 6.554688 -12.015625 7.796875 -12.015625 C 8.898438 -12.015625 9.882812 -11.765625 10.75 -11.265625 C 11.625 -10.773438 12.300781 -10.070312 12.78125 -9.15625 C 13.269531 -8.238281 13.515625 -7.164062 13.515625 -5.9375 C 13.515625 -4.71875 13.269531 -3.644531 12.78125 -2.71875 C 12.300781 -1.789062 11.625 -1.078125 10.75 -0.578125 C 9.882812 -0.078125 8.898438 0.171875 7.796875 0.171875 C 6.554688 0.171875 5.492188 -0.128906 4.609375 -0.734375 C 3.734375 -1.347656 3.125 -2.140625 2.78125 -3.109375 L 2.78125 0 L 1.796875 0 L 1.796875 -16.171875 L 2.78125 -16.171875 Z M 12.515625 -5.9375 C 12.515625 -7.019531 12.3125 -7.953125 11.90625 -8.734375 C 11.5 -9.523438 10.925781 -10.125 10.1875 -10.53125 C 9.457031 -10.945312 8.609375 -11.15625 7.640625 -11.15625 C 6.722656 -11.15625 5.894531 -10.941406 5.15625 -10.515625 C 4.414062 -10.085938 3.832031 -9.476562 3.40625 -8.6875 C 2.988281 -7.894531 2.78125 -6.976562 2.78125 -5.9375 C 2.78125 -4.894531 2.988281 -3.972656 3.40625 -3.171875 C 3.832031 -2.378906 4.414062 -1.769531 5.15625 -1.34375 C 5.894531 -0.914062 6.722656 -0.703125 7.640625 -0.703125 C 8.609375 -0.703125 9.457031 -0.910156 10.1875 -1.328125 C 10.925781 -1.753906 11.5 -2.359375 11.90625 -3.140625 C 12.3125 -3.929688 12.515625 -4.863281 12.515625 -5.9375 Z M 12.515625 -5.9375 "/></g></g><g style="fill:#373643;fill-opacity:1;"><g transform="translate(293.10637, 246.463748)"><path style="stroke:none" d="M 2.296875 -14.5 C 2.054688 -14.5 1.859375 -14.578125 1.703125 -14.734375 C 1.546875 -14.890625 1.46875 -15.097656 1.46875 -15.359375 C 1.46875 -15.609375 1.546875 -15.8125 1.703125 -15.96875 C 1.859375 -16.125 2.054688 -16.203125 2.296875 -16.203125 C 2.523438 -16.203125 2.71875 -16.125 2.875 -15.96875 C 3.039062 -15.8125 3.125 -15.609375 3.125 -15.359375 C 3.125 -15.097656 3.039062 -14.890625 2.875 -14.734375 C 2.71875 -14.578125 2.523438 -14.5 2.296875 -14.5 Z M 2.78125 -11.859375 L 2.78125 0 L 1.796875 0 L 1.796875 -11.859375 Z M 2.78125 -11.859375 "/></g></g><g style="fill:#373643;fill-opacity:1;"><g transform="translate(296.862348, 246.463748)"><path style="stroke:none" d="M 2.78125 -16.171875 L 2.78125 0 L 1.796875 0 L 1.796875 -16.171875 Z M 2.78125 -16.171875 "/></g></g><g style="fill:#373643;fill-opacity:1;"><g transform="translate(300.618326, 246.463748)"><path style="stroke:none" d="M 2.296875 -14.5 C 2.054688 -14.5 1.859375 -14.578125 1.703125 -14.734375 C 1.546875 -14.890625 1.46875 -15.097656 1.46875 -15.359375 C 1.46875 -15.609375 1.546875 -15.8125 1.703125 -15.96875 C 1.859375 -16.125 2.054688 -16.203125 2.296875 -16.203125 C 2.523438 -16.203125 2.71875 -16.125 2.875 -15.96875 C 3.039062 -15.8125 3.125 -15.609375 3.125 -15.359375 C 3.125 -15.097656 3.039062 -14.890625 2.875 -14.734375 C 2.71875 -14.578125 2.523438 -14.5 2.296875 -14.5 Z M 2.78125 -11.859375 L 2.78125 0 L 1.796875 0 L 1.796875 -11.859375 Z M 2.78125 -11.859375 "/></g></g><g style="fill:#373643;fill-opacity:1;"><g transform="translate(304.374304, 246.463748)"><path style="stroke:none" d="M 3.25 -11.015625 L 3.25 -3.171875 C 3.25 -2.296875 3.410156 -1.691406 3.734375 -1.359375 C 4.054688 -1.035156 4.625 -0.875 5.4375 -0.875 L 6.765625 -0.875 L 6.765625 0 L 5.28125 0 C 4.25 0 3.488281 -0.242188 3 -0.734375 C 2.507812 -1.222656 2.265625 -2.035156 2.265625 -3.171875 L 2.265625 -11.015625 L 0.484375 -11.015625 L 0.484375 -11.859375 L 2.265625 -11.859375 L 2.265625 -14.875 L 3.25 -14.875 L 3.25 -11.859375 L 6.765625 -11.859375 L 6.765625 -11.015625 Z M 3.25 -11.015625 "/></g></g><g style="fill:#373643;fill-opacity:1;"><g transform="translate(311.122242, 246.463748)"><path style="stroke:none" d="M 11.046875 -11.859375 L 4.15625 5.5625 L 3.140625 5.5625 L 5.359375 0 L 0.375 -11.859375 L 1.4375 -11.859375 L 5.890625 -1.09375 L 10.046875 -11.859375 Z M 11.046875 -11.859375 "/></g></g></g></svg>