<svg xmlns="http://www.w3.org/2000/svg" xmlns:xlink="http://www.w3.org/1999/xlink" width="500" zoomAndPan="magnify" viewBox="0 0 375 374.999991" height="500" preserveAspectRatio="xMidYMid meet" version="1.2"><defs><clipPath id="0d6a3de7d7"><path d="M 34 166 L 205 166 L 205 339 L 34 339 Z M 34 166 "/></clipPath><clipPath id="d0598676e3"><path d="M -1.039062 193.21875 L 119.660156 81.660156 L 287.003906 262.710938 L 166.300781 374.273438 Z M -1.039062 193.21875 "/></clipPath><clipPath id="2b7ed13df5"><path d="M -1.039062 193.21875 L 119.660156 81.660156 L 287.003906 262.710938 L 166.300781 374.273438 Z M -1.039062 193.21875 "/></clipPath><clipPath id="742d0e4016"><path d="M 121 85 L 292 85 L 292 258 L 121 258 Z M 121 85 "/></clipPath><clipPath id="a85803e1b0"><path d="M 86.46875 112.339844 L 207.167969 0.777344 L 374.511719 181.832031 L 253.808594 293.390625 Z M 86.46875 112.339844 "/></clipPath><clipPath id="02ad4765ef"><path d="M 86.46875 112.339844 L 207.167969 0.777344 L 374.511719 181.832031 L 253.808594 293.390625 Z M 86.46875 112.339844 "/></clipPath></defs><g id="0fb8ce34ef"><g clip-rule="nonzero" clip-path="url(#0d6a3de7d7)"><g clip-rule="nonzero" clip-path="url(#d0598676e3)"><g clip-rule="nonzero" clip-path="url(#2b7ed13df5)"><path style=" stroke:none;fill-rule:nonzero;fill:#18cb96;fill-opacity:1;" d="M 204.277344 173.214844 L 57.476562 166.6875 C 29.117188 165.429688 24.332031 220.664062 57.929688 221.574219 L 149.277344 224.050781 L 142.300781 315.96875 C 140.175781 343.957031 194.765625 346.914062 196.324219 318.46875 Z M 204.277344 173.214844 "/></g></g></g><g clip-rule="nonzero" clip-path="url(#742d0e4016)"><g clip-rule="nonzero" clip-path="url(#a85803e1b0)"><g clip-rule="nonzero" clip-path="url(#02ad4765ef)"><path style=" stroke:none;fill-rule:nonzero;fill:#18cb96;fill-opacity:1;" d="M 291.785156 92.332031 L 144.984375 85.808594 C 116.628906 84.546875 111.839844 139.78125 145.4375 140.695312 L 236.785156 143.167969 L 229.808594 235.085938 C 227.683594 263.078125 282.273438 266.035156 283.832031 237.585938 Z M 291.785156 92.332031 "/></g></g></g></g></svg>